<svg xmlns="http://www.w3.org/2000/svg" xmlns:xlink="http://www.w3.org/1999/xlink" width="275" zoomAndPan="magnify" viewBox="0 0 206.25 40.499999" height="54" preserveAspectRatio="xMidYMid meet" version="1.2"><defs><clipPath id="daf5a4912e"><path d="M 14 0.703125 L 28 0.703125 L 28 39.398438 L 14 39.398438 Z M 14 0.703125 "/></clipPath><clipPath id="df3632bfc2"><path d="M 1.628906 1 L 15 1 L 15 39 L 1.628906 39 Z M 1.628906 1 "/></clipPath><clipPath id="476492153b"><path d="M 27 1 L 40.324219 1 L 40.324219 39 L 27 39 Z M 27 1 "/></clipPath></defs><g id="9b5267ac2f"><g clip-rule="nonzero" clip-path="url(#daf5a4912e)"><path style=" stroke:none;fill-rule:evenodd;fill:#ffffff;fill-opacity:1;" d="M 27.355469 1.800781 L 27.355469 38.199219 C 25.34375 38.910156 23.179688 39.296875 20.921875 39.296875 C 18.667969 39.296875 16.5 38.910156 14.492188 38.199219 L 14.492188 1.800781 C 16.5 1.089844 18.667969 0.703125 20.921875 0.703125 C 23.179688 0.703125 25.34375 1.089844 27.355469 1.800781 Z M 27.355469 1.800781 "/></g><g clip-rule="nonzero" clip-path="url(#df3632bfc2)"><path style=" stroke:none;fill-rule:evenodd;fill:#027432;fill-opacity:1;" d="M 14.492188 1.800781 L 14.492188 38.199219 C 6.996094 35.546875 1.628906 28.398438 1.628906 20 C 1.628906 11.601562 6.996094 4.453125 14.492188 1.800781 Z M 14.492188 1.800781 "/></g><g clip-rule="nonzero" clip-path="url(#476492153b)"><path style=" stroke:none;fill-rule:evenodd;fill:#027432;fill-opacity:1;" d="M 27.355469 38.199219 L 27.355469 1.800781 C 34.851562 4.453125 40.21875 11.601562 40.21875 20 C 40.21875 28.398438 34.851562 35.546875 27.355469 38.199219 Z M 27.355469 38.199219 "/></g><g style="fill:#027432;fill-opacity:1;"><g transform="translate(48.180912, 29.656884)"><path style="stroke:none" d="M 10.75 -17.421875 C 13.738281 -17.421875 16.085938 -16.660156 17.796875 -15.140625 C 19.503906 -13.628906 20.359375 -11.421875 20.359375 -8.515625 C 20.359375 -5.609375 19.503906 -3.394531 17.796875 -1.875 C 16.085938 -0.363281 13.738281 0.390625 10.75 0.390625 C 7.757812 0.390625 5.410156 -0.359375 3.703125 -1.859375 C 2.003906 -3.367188 1.15625 -5.585938 1.15625 -8.515625 C 1.15625 -11.441406 2.003906 -13.65625 3.703125 -15.15625 C 5.410156 -16.664062 7.757812 -17.421875 10.75 -17.421875 Z M 10.75 -13.0625 C 8.632812 -13.0625 7.578125 -11.847656 7.578125 -9.421875 L 7.578125 -7.578125 C 7.578125 -5.171875 8.632812 -3.96875 10.75 -3.96875 C 12.875 -3.96875 13.9375 -5.171875 13.9375 -7.578125 L 13.9375 -9.421875 C 13.9375 -11.847656 12.875 -13.0625 10.75 -13.0625 Z M 10.75 -13.0625 "/></g></g><g style="fill:#027432;fill-opacity:1;"><g transform="translate(70.047443, 29.656884)"><path style="stroke:none" d="M 13.171875 -17.421875 C 15.460938 -17.421875 17.234375 -16.664062 18.484375 -15.15625 C 19.734375 -13.65625 20.359375 -11.429688 20.359375 -8.484375 C 20.359375 -5.554688 19.734375 -3.34375 18.484375 -1.84375 C 17.234375 -0.351562 15.460938 0.390625 13.171875 0.390625 C 11.191406 0.390625 9.597656 -0.253906 8.390625 -1.546875 L 8.390625 6.359375 L 1.96875 6.359375 L 1.96875 -17.03125 L 7.1875 -17.03125 L 7.75 -14.609375 C 8.988281 -16.484375 10.796875 -17.421875 13.171875 -17.421875 Z M 11.15625 -12.6875 C 10.21875 -12.6875 9.507812 -12.351562 9.03125 -11.6875 C 8.5625 -11.019531 8.328125 -10.144531 8.328125 -9.0625 L 8.328125 -8 C 8.328125 -6.925781 8.5625 -6.050781 9.03125 -5.375 C 9.507812 -4.695312 10.21875 -4.359375 11.15625 -4.359375 C 13.007812 -4.359375 13.9375 -5.460938 13.9375 -7.671875 L 13.9375 -9.390625 C 13.9375 -11.585938 13.007812 -12.6875 11.15625 -12.6875 Z M 11.15625 -12.6875 "/></g></g><g style="fill:#027432;fill-opacity:1;"><g transform="translate(91.913974, 29.656884)"><path style="stroke:none" d="M 10.75 -17.421875 C 13.863281 -17.421875 16.242188 -16.6875 17.890625 -15.21875 C 19.535156 -13.757812 20.359375 -11.523438 20.359375 -8.515625 L 20.359375 -7.421875 L 7.578125 -7.421875 C 7.578125 -6.191406 7.851562 -5.265625 8.40625 -4.640625 C 8.957031 -4.015625 9.820312 -3.703125 11 -3.703125 C 12.070312 -3.703125 12.859375 -3.925781 13.359375 -4.375 C 13.867188 -4.832031 14.125 -5.4375 14.125 -6.1875 L 20.359375 -6.1875 C 20.359375 -4.125 19.570312 -2.507812 18 -1.34375 C 16.4375 -0.1875 14.144531 0.390625 11.125 0.390625 C 7.96875 0.390625 5.515625 -0.34375 3.765625 -1.8125 C 2.023438 -3.289062 1.15625 -5.523438 1.15625 -8.515625 C 1.15625 -11.441406 2.003906 -13.65625 3.703125 -15.15625 C 5.410156 -16.664062 7.757812 -17.421875 10.75 -17.421875 Z M 11 -13.328125 C 8.976562 -13.328125 7.847656 -12.367188 7.609375 -10.453125 L 13.875 -10.453125 C 13.875 -11.335938 13.617188 -12.035156 13.109375 -12.546875 C 12.609375 -13.066406 11.90625 -13.328125 11 -13.328125 Z M 11 -13.328125 "/></g></g><g style="fill:#027432;fill-opacity:1;"><g transform="translate(113.780506, 29.656884)"><path style="stroke:none" d="M 13.6875 -17.421875 C 15.664062 -17.421875 17.148438 -16.867188 18.140625 -15.765625 C 19.128906 -14.671875 19.625 -13.09375 19.625 -11.03125 L 19.625 0 L 13.203125 0 L 13.203125 -10.265625 C 13.203125 -10.992188 13.007812 -11.578125 12.625 -12.015625 C 12.25 -12.460938 11.71875 -12.6875 11.03125 -12.6875 C 10.238281 -12.6875 9.59375 -12.425781 9.09375 -11.90625 C 8.601562 -11.382812 8.359375 -10.75 8.359375 -10 L 8.359375 0 L 1.9375 0 L 1.9375 -17.03125 L 7.1875 -17.03125 L 7.609375 -14.453125 C 8.273438 -15.359375 9.148438 -16.078125 10.234375 -16.609375 C 11.328125 -17.148438 12.476562 -17.421875 13.6875 -17.421875 Z M 13.6875 -17.421875 "/></g></g><g style="fill:#027432;fill-opacity:1;"><g transform="translate(135.647037, 29.656884)"><path style="stroke:none" d="M 2.15625 -19.03125 L 2.15625 -23.390625 L 8.578125 -23.390625 L 8.578125 -19.03125 Z M 2.15625 0 L 2.15625 -17.03125 L 8.578125 -17.03125 L 8.578125 0 Z M 2.15625 0 "/></g></g><g style="fill:#027432;fill-opacity:1;"><g transform="translate(146.741651, 29.656884)"><path style="stroke:none" d="M 13.6875 -17.421875 C 15.664062 -17.421875 17.148438 -16.867188 18.140625 -15.765625 C 19.128906 -14.671875 19.625 -13.09375 19.625 -11.03125 L 19.625 0 L 13.203125 0 L 13.203125 -10.265625 C 13.203125 -10.992188 13.007812 -11.578125 12.625 -12.015625 C 12.25 -12.460938 11.71875 -12.6875 11.03125 -12.6875 C 10.238281 -12.6875 9.59375 -12.425781 9.09375 -11.90625 C 8.601562 -11.382812 8.359375 -10.75 8.359375 -10 L 8.359375 0 L 1.9375 0 L 1.9375 -17.03125 L 7.1875 -17.03125 L 7.609375 -14.453125 C 8.273438 -15.359375 9.148438 -16.078125 10.234375 -16.609375 C 11.328125 -17.148438 12.476562 -17.421875 13.6875 -17.421875 Z M 13.6875 -17.421875 "/></g></g><g style="fill:#027432;fill-opacity:1;"><g transform="translate(168.608182, 29.656884)"><path style="stroke:none" d="M 8.875 -23.78125 C 9.34375 -23.78125 9.929688 -23.71875 10.640625 -23.59375 C 11.359375 -23.476562 11.929688 -23.347656 12.359375 -23.203125 L 12.359375 -19.421875 L 10.875 -19.421875 C 10.1875 -19.421875 9.710938 -19.289062 9.453125 -19.03125 C 9.191406 -18.78125 9.0625 -18.34375 9.0625 -17.71875 L 9.0625 -17.03125 L 12.359375 -17.03125 L 12.359375 -12.6875 L 9.0625 -12.6875 L 9.0625 0 L 2.640625 0 L 2.640625 -12.6875 L 0.265625 -12.6875 L 0.265625 -17.03125 L 2.640625 -17.03125 L 2.640625 -17.75 C 2.640625 -19.9375 3.175781 -21.488281 4.25 -22.40625 C 5.332031 -23.320312 6.875 -23.78125 8.875 -23.78125 Z M 8.875 -23.78125 "/></g></g><g style="fill:#027432;fill-opacity:1;"><g transform="translate(180.96041, 29.656884)"><path style="stroke:none" d="M 10.75 -17.421875 C 13.738281 -17.421875 16.085938 -16.660156 17.796875 -15.140625 C 19.503906 -13.628906 20.359375 -11.421875 20.359375 -8.515625 C 20.359375 -5.609375 19.503906 -3.394531 17.796875 -1.875 C 16.085938 -0.363281 13.738281 0.390625 10.75 0.390625 C 7.757812 0.390625 5.410156 -0.359375 3.703125 -1.859375 C 2.003906 -3.367188 1.15625 -5.585938 1.15625 -8.515625 C 1.15625 -11.441406 2.003906 -13.65625 3.703125 -15.15625 C 5.410156 -16.664062 7.757812 -17.421875 10.75 -17.421875 Z M 10.75 -13.0625 C 8.632812 -13.0625 7.578125 -11.847656 7.578125 -9.421875 L 7.578125 -7.578125 C 7.578125 -5.171875 8.632812 -3.96875 10.75 -3.96875 C 12.875 -3.96875 13.9375 -5.171875 13.9375 -7.578125 L 13.9375 -9.421875 C 13.9375 -11.847656 12.875 -13.0625 10.75 -13.0625 Z M 10.75 -13.0625 "/></g></g></g></svg>